#!OML:ASF E:\acrobat2\Project_11_07_03\Capture day 1\Session 1\Acrobat.ASF
:FULLY-SPECIFIED
:DEGREES
371
root 10.2827 17.981 -26.5447 3.54691 7.82647 -4.85796
lowerback -2.1528 1.7194 6.93303
upperback 0.386734 2.09133 0.6885
thorax 1.83162 1.11189 -3.09089
lowerneck 0.506065 -4.4367 -1.84662
upperneck 2.81787 -6.00146 3.7011
head 0.964368 -2.9833 1.40615
rclavicle 1.47e-014 9.31803e-015
rhumerus -28.6007 2.91151 -80.4583
rradius 32.2286
rwrist 2.64267
rhand -0.0413495 -46.5322
rfingers 7.12502
rthumb 25.5508 -74.8387
lclavicle 1.47e-014 9.31803e-015
lhumerus -27.4557 -16.7661 89.4823
lradius 37.5288
lwrist 15.9142
lhand -14.6001 -13.3696
lfingers 7.12502
lthumb 11.5505 16.2921
rfemur 5.32683 3.50941 29.6937
rtibia 3.44279
rfoot -22.0446 -15.6713
rtoes 7.17195
lfemur -30.353 3.72172 -11.1912
ltibia 46.775
lfoot -3.56823 -4.71819
ltoes 19.9448
372
root 10.282 17.9643 -26.4009 3.60021 7.63511 -4.88287
lowerback -2.28034 1.79427 7.00109
upperback 0.350614 2.18094 0.622904
thorax 1.88067 1.15827 -3.18913
lowerneck 0.581013 -4.36381 -1.80864
upperneck 2.63568 -5.89435 3.47187
head 0.881888 -2.93361 1.33216
rclavicle -3.55856e-014 -3.91606e-014
rhumerus -28.3444 3.27985 -80.5108
rradius 32.6052
rwrist 2.50625
rhand -0.170796 -46.4446
rfingers 7.12502
rthumb 25.4268 -74.7688
lclavicle -3.55856e-014 -3.91606e-014
lhumerus -27.6094 -16.8622 89.4559
lradius 37.6841
lwrist 15.8254
lhand -14.6156 -13.5239
lfingers 7.12502
lthumb 11.5355 16.1387
rfemur 5.92025 3.55893 29.842
rtibia 3.178
rfoot -22.2244 -15.6227
rtoes 6.55552
lfemur -30.6554 3.77719 -11.3441
ltibia 44.4643
lfoot -3.52416 -4.68433
ltoes 20.1086
373
root 10.2824 17.9461 -26.2548 3.66133 7.46683 -4.8953
lowerback -2.41012 1.858 7.04695
upperback 0.302234 2.25658 0.560213
thorax 1.91611 1.19672 -3.2726
lowerneck 0.630651 -4.28972 -1.78768
upperneck 2.50647 -5.78786 3.2591
head 0.821993 -2.88331 1.26525
rclavicle -4.45775e-014 -4.13472e-014
rhumerus -28.1367 3.68484 -80.5675
rradius 32.9853
rwrist 2.38623
rhand -0.284031 -46.3616
rfingers 7.12502
rthumb 25.3183 -74.7011
lclavicle -4.45775e-014 -4.13472e-014
lhumerus -27.8031 -16.9424 89.4487
lradius 37.8082
lwrist 15.742
lhand -14.6041 -13.6396
lfingers 7.12502
lthumb 11.5466 16.0224
rfemur 6.53241 3.55642 29.9584
rtibia 2.89497
rfoot -22.4379 -15.5338
rtoes 5.97712
lfemur -30.8943 3.78038 -11.508
ltibia 42.0545
lfoot -3.4471 -4.61628
ltoes 20.3272
374
root 10.2835 17.9263 -26.107 3.72894 7.32236 -4.90021
lowerback -2.53768 1.90698 7.07625
upperback 0.251974 2.31327 0.500688
thorax 1.94568 1.22529 -3.34443
lowerneck 0.642158 -4.20998 -1.76207
upperneck 2.39986 -5.67409 3.0245
head 0.774916 -2.82879 1.1898
rclavicle 6.34558e-015 1.70955e-014
rhumerus -27.9573 4.11863 -80.6322
rradius 33.3802
rwrist 2.27708
rhand -0.370677 -46.3117
rfingers 7.12502
rthumb 25.2353 -74.663
lclavicle 6.34558e-015 1.70955e-014
lhumerus -28.0171 -17.0015 89.4456
lradius 37.9058
lwrist 15.6873
lhand -14.554 -13.7115
lfingers 7.12502
lthumb 11.5949 15.9477
rfemur 7.14796 3.51026 30.0514
rtibia 2.62112
rfoot -22.6924 -15.4077
rtoes 5.43174
lfemur -31.0711 3.74671 -11.6755
ltibia 39.5437
lfoot -3.34656 -4.53761
ltoes 20.7517
375
root 10.2849 17.9051 -25.958 3.80634 7.18365 -4.90949
lowerback -2.66802 1.9468 7.09727
upperback 0.205155 2.35748 0.448059
thorax 1.97847 1.2477 -3.40486
lowerneck 0.591882 -4.13307 -1.7435
upperneck 2.36162 -5.56516 2.78392
head 0.759984 -2.7758 1.11174
rclavicle 1.78347e-014 -9.64106e-015
rhumerus -27.7873 4.55904 -80.7027
rradius 33.7863
rwrist 2.1807
rhand -0.445035 -46.2808
rfingers 7.12502
rthumb 25.164 -74.6421
lclavicle 1.78347e-014 -9.64106e-015
lhumerus -28.2371 -17.0332 89.4394
lradius 37.9734
lwrist 15.6701
lhand -14.4657 -13.7382
lfingers 7.12502
lthumb 11.68 15.9162
rfemur 7.74249 3.44992 30.1404
rtibia 2.38793
rfoot -22.9869 -15.2536
rtoes 4.93288
lfemur -31.1882 3.71499 -11.8278
ltibia 36.9335
lfoot -3.25054 -4.46117
ltoes 21.3908
376
root 10.2864 17.8825 -25.8079 3.89771 7.02693 -4.93758
lowerback -2.8074 1.99054 7.12793
upperback 0.161301 2.40559 0.400743
thorax 2.02015 1.27248 -3.46446
lowerneck 0.509045 -4.07183 -1.71628
upperneck 2.33049 -5.47671 2.52523
head 0.752657 -2.73284 1.0259
rclavicle 1.92138e-014 1.21259e-014
rhumerus -27.6212 4.97053 -80.778
rradius 34.1959
rwrist 2.10245
rhand -0.507594 -46.2662
rfingers 7.12502
rthumb 25.1041 -74.6359
lclavicle 1.92138e-014 1.21259e-014
lhumerus -28.4402 -17.0449 89.4267
lradius 37.9819
lwrist 15.69
lhand -14.3424 -13.7436
lfingers 7.12502
lthumb 11.799 15.904
rfemur 8.30224 3.40717 30.2462
rtibia 2.21008
rfoot -23.3227 -15.0676
rtoes 4.55579
lfemur -31.2469 3.72556 -11.9445
ltibia 34.2316
lfoot -3.1908 -4.38763
ltoes 22.2302
377
root 10.2879 17.8582 -25.6568 4.00204 6.82515 -5.0022
lowerback -2.95516 2.0506 7.18674
upperback 0.12006 2.47346 0.358286
thorax 2.07265 1.30778 -3.53307
lowerneck 0.418188 -4.03012 -1.64881
upperneck 2.26401 -5.413 2.22464
head 0.733977 -2.70234 0.920653
rclavicle -4.2248e-014 -1.70955e-014
rhumerus -27.4601 5.33465 -80.8605
rradius 34.6086
rwrist 2.03636
rhand -0.555869 -46.2637
rfingers 7.12502
rthumb 25.0578 -74.6398
lclavicle -4.2248e-014 -1.70955e-014
lhumerus -28.6159 -17.0475 89.4063
lradius 37.8985
lwrist 15.7459
lhand -14.2038 -13.821
lfingers 7.12502
lthumb 11.9326 15.8189
rfemur 8.82717 3.40987 30.391
rtibia 2.08925
rfoot -23.7032 -14.8376
rtoes 4.40234
lfemur -31.2458 3.80312 -11.9993
ltibia 31.4525
lfoot -3.19249 -4.29435
ltoes 23.2982
378
root 10.2894 17.8325 -25.5045 4.11198 6.56443 -5.11052
lowerback -3.1029 2.12723 7.27828
upperback 0.078196 2.56186 0.325664
thorax 2.12814 1.35368 -3.60827
lowerneck 0.356713 -4.02811 -1.54016
upperneck 2.11877 -5.40099 1.86993
head 0.684425 -2.69806 0.79343
rclavicle 1.86547e-014 -1.88845e-015
rhumerus -27.3086 5.67528 -80.9527
rradius 35.0142
rwrist 1.9692
rhand -0.59866 -46.2511
rfingers 7.12502
rthumb 25.0168 -74.6329
lclavicle 1.86547e-014 -1.88845e-015
lhumerus -28.7774 -17.0239 89.3824
lradius 37.7304
lwrist 15.8058
lhand -14.0708 -13.9456
lfingers 7.12502
lthumb 12.0609 15.6869
rfemur 9.31808 3.46064 30.5808
rtibia 2.03484
rfoot -24.1223 -14.5555
rtoes 4.49065
lfemur -31.1828 3.92914 -11.9768
ltibia 28.6243
lfoot -3.28888 -4.1399
ltoes 24.5578
379
root 10.2908 17.8056 -25.3507 4.22327 6.25558 -5.25097
lowerback -3.24558 2.21868 7.39388
upperback 0.0306127 2.66944 0.298047
thorax 2.17838 1.40905 -3.69045
lowerneck 0.345853 -4.04958 -1.40682
upperneck 1.91422 -5.42086 1.49267
head 0.607634 -2.7098 0.657563
rclavicle 2.19781e-014 -1.78906e-015
rhumerus -27.1758 6.0091 -81.0579
rradius 35.3962
rwrist 1.87818
rhand -0.647326 -46.2064
rfingers 7.12502
rthumb 24.9702 -74.5948
lclavicle 2.19781e-014 -1.78906e-015
lhumerus -28.9399 -16.9772 89.3597
lradius 37.4912
lwrist 15.8527
lhand -13.9468 -14.0693
lfingers 7.12502
lthumb 12.1804 15.556
rfemur 9.77447 3.54594 30.8016
rtibia 2.05084
rfoot -24.5652 -14.2419
rtoes 4.67786
lfemur -31.0627 4.06134 -11.8868
ltibia 25.7781
lfoot -3.51571 -3.90329
ltoes 25.8326
380
root 10.292 17.7777 -25.1957 4.33562 5.91624 -5.40387
lowerback -3.38119 2.31756 7.50882
upperback -0.0207295 2.78736 0.27315
thorax 2.22231 1.46923 -3.7687
lowerneck 0.382175 -4.0775 -1.26927
upperneck 1.65912 -5.45076 1.11372
head 0.507959 -2.72631 0.523103
rclavicle 3.74336e-014 -5.1684e-015
rhumerus -27.06 6.34503 -81.175
rradius 35.7528
rwrist 1.76339
rhand -0.706266 -46.1288
rfingers 7.12502
rthumb 24.9137 -74.525
lclavicle 3.74336e-014 -5.1684e-015
lhumerus -29.1171 -16.9005 89.3398
lradius 37.2112
lwrist 15.8388
lhand -13.8589 -14.1348
lfingers 7.12502
lthumb 12.2652 15.4855
rfemur 10.1971 3.65134 31.033
rtibia 2.13346
rfoot -25.0131 -13.9286
rtoes 4.8067
lfemur -30.8931 4.16901 -11.7518
ltibia 22.9384
lfoot -3.88369 -3.5695
ltoes 26.8951
381
root 10.2934 17.7489 -25.0396 4.44697 5.55869 -5.55402
lowerback -3.50695 2.41957 7.61241
upperback -0.0683831 2.91042 0.244656
thorax 2.2653 1.53194 -3.84383
lowerneck 0.408227 -4.07402 -1.18255
upperneck 1.43414 -5.44122 0.806232
head 0.422932 -2.72251 0.419165
rclavicle -2.88486e-014 1.74931e-014
rhumerus -26.9557 6.6596 -81.3056
rradius 36.0877
rwrist 1.66318
rhand -0.756455 -46.0547
rfingers 7.12502
rthumb 24.8656 -74.4576
lclavicle -2.88486e-014 1.74931e-014
lhumerus -29.3083 -16.7971 89.316
lradius 36.9207
lwrist 15.7181
lhand -13.8176 -14.0657
lfingers 7.12502
lthumb 12.305 15.5523
rfemur 10.5895 3.75348 31.2529
rtibia 2.27839
rfoot -25.4419 -13.6217
rtoes 4.83274
lfemur -30.6752 4.2228 -11.586
ltibia 20.1247
lfoot -4.37588 -3.11582
ltoes 27.6415
382
root 10.2956 17.7192 -24.8821 4.55495 5.18648 -5.68656
lowerback -3.62146 2.52327 7.70128
upperback -0.113714 3.03727 0.204979
thorax 2.30519 1.59641 -3.92206
lowerneck 0.45955 -4.03345 -1.12862
upperneck 1.19091 -5.38422 0.553637
head 0.330959 -2.69451 0.338587
rclavicle -3.47376e-014 -4.96962e-015
rhumerus -26.8825 6.93992 -81.4527
rradius 36.4137
rwrist 1.59393
rhand -0.782004 -46.0107
rfingers 7.12502
rthumb 24.8411 -74.417
lclavicle -3.47376e-014 -4.96962e-015
lhumerus -29.524 -16.6783 89.2868
lradius 36.6262
lwrist 15.4925
lhand -13.7992 -13.8584
lfingers 7.12502
lthumb 12.3227 15.7585
rfemur 10.9604 3.82305 31.433
rtibia 2.48012
rfoot -25.8274 -13.2999
rtoes 4.75214
lfemur -30.4054 4.1952 -11.4003
ltibia 17.3553
lfoot -4.96817 -2.54157
ltoes 28.1333
383
root 10.2994 17.6888 -24.7229 4.65883 4.79363 -5.79003
lowerback -3.72681 2.62547 7.766
upperback -0.152607 3.16374 0.156025
thorax 2.34629 1.66073 -3.99628
lowerneck 0.50264 -3.93747 -1.13467
upperneck 0.97122 -5.25507 0.378895
head 0.251442 -2.63006 0.290995
rclavicle -1.07468e-014 -8.54774e-015
rhumerus -26.8458 7.19582 -81.6099
rradius 36.7486
rwrist 1.54931
rhand -0.789038 -45.9889
rfingers 7.12502
rthumb 24.8344 -74.3961
lclavicle -1.07468e-014 -8.54774e-015
lhumerus -29.7603 -16.5468 89.2596
lradius 36.3108
lwrist 15.1999
lhand -13.8386 -13.5163
lfingers 7.12502
lthumb 12.2847 16.1029
rfemur 11.3182 3.84332 31.5473
rtibia 2.73167
rfoot -26.148 -12.9284
rtoes 4.62214
lfemur -30.0841 4.07708 -11.203
ltibia 14.6564
lfoot -5.64196 -1.86561
ltoes 28.4135
384
root 10.3049 17.6582 -24.5619 4.75604 4.37713 -5.86822
lowerback -3.82856 2.7241 7.81291
upperback -0.180822 3.28614 0.100469
thorax 2.3958 1.72348 -4.06718
lowerneck 0.554593 -3.80384 -1.1787
upperneck 0.732632 -5.07702 0.248513
head 0.167198 -2.54079 0.263245
rclavicle 1.8897e-014 -1.8487e-014
rhumerus -26.8332 7.44235 -81.7774
rradius 37.0806
rwrist 1.51928
rhand -0.794329 -45.9699
rfingers 7.12502
rthumb 24.8293 -74.3777
lclavicle 1.8897e-014 -1.8487e-014
lhumerus -30.0045 -16.3994 89.2363
lradius 35.9506
lwrist 14.8925
lhand -13.7944 -13.0434
lfingers 7.12502
lthumb 12.3274 16.5732
rfemur 11.6718 3.80608 31.59
rtibia 3.01927
rfoot -26.3829 -12.4865
rtoes 4.45793
lfemur -29.7166 3.89185 -10.994
ltibia 12.0666
lfoot -6.36946 -1.12492
ltoes 28.3763
